<svg width="32" height="25" viewBox="0 0 32 25" fill="none" xmlns="http://www.w3.org/2000/svg">
<path d="M29.7187 0.9175H2.28135C1.59229 0.9175 0.917727 1.54461 0.917727 2.40923C0.917727 2.78571 1.08819 3.15709 1.33953 3.43357C1.5904 3.70952 1.93133 3.90096 2.28135 3.90096H29.7187C30.5188 3.90096 31.0823 3.26927 31.0823 2.40923C31.0823 1.54919 30.5188 0.9175 29.7187 0.9175ZM29.7189 11.0083H2.28158C1.59252 11.0083 0.917957 11.6354 0.917957 12.5C0.917957 13.36 1.48147 13.9917 2.28158 13.9917H29.7189C30.519 13.9917 31.0825 13.36 31.0825 12.5C31.0825 11.64 30.519 11.0083 29.7189 11.0083ZM29.7184 21.099H2.28112C1.59206 21.099 0.9175 21.7262 0.9175 22.5908C0.9175 23.4508 1.48101 24.0825 2.28112 24.0825H29.7184C30.5185 24.0825 31.082 23.4508 31.082 22.5908C31.082 21.7307 30.5185 21.099 29.7184 21.099Z" fill="black" stroke="black" stroke-width="0.165"/>
</svg>
