<svg width="27" height="27" viewBox="0 0 27 27" fill="none" xmlns="http://www.w3.org/2000/svg">
<path d="M26.0838 8.15392C26.0229 6.77486 25.7997 5.82685 25.4799 5.00529C25.1501 4.13329 24.6427 3.3526 23.9779 2.70358C23.3283 2.04446 22.5418 1.53228 21.6791 1.2079C20.8522 0.888484 19.9083 0.6654 18.5281 0.60466C17.1376 0.538648 16.6962 0.523438 13.1695 0.523438C9.64285 0.523438 9.20143 0.538648 7.81608 0.599489C6.43591 0.66033 5.48706 0.883515 4.66507 1.20273C3.79208 1.53228 3.01073 2.03929 2.36117 2.70358C1.7015 3.35255 1.18915 4.13841 0.864235 5.00033C0.544552 5.82685 0.321332 6.76979 0.26049 8.14875C0.194473 9.53811 0.179199 9.97915 0.179199 13.5029C0.179199 17.0266 0.194473 17.4677 0.255314 18.8518C0.316206 20.2309 0.539579 21.1789 0.859313 22.0004C1.18915 22.8724 1.7015 23.6531 2.36117 24.3022C3.01073 24.9613 3.79726 25.4734 4.65989 25.7978C5.48701 26.1172 6.43074 26.3403 7.81116 26.4011C9.19625 26.4621 9.63792 26.4771 13.1646 26.4771C16.6913 26.4771 17.1327 26.4621 18.518 26.4011C19.8982 26.3403 20.847 26.1173 21.669 25.7978C22.5324 25.4643 23.3164 24.9542 23.9709 24.3003C24.6255 23.6464 25.136 22.863 25.4699 22.0004C25.7894 21.174 26.0128 20.2308 26.0736 18.8518C26.1345 17.4677 26.1497 17.0266 26.1497 13.5029C26.1497 9.97915 26.1446 9.53806 26.0838 8.15392ZM23.7446 18.7504C23.6887 20.0179 23.4756 20.7024 23.298 21.1587C22.8615 22.2893 21.9634 23.1867 20.8318 23.6229C20.3751 23.8003 19.6851 24.0132 18.4215 24.0688C17.0514 24.1299 16.6405 24.1449 13.1747 24.1449C9.70886 24.1449 9.29282 24.1299 7.92767 24.0688C6.65908 24.0132 5.97405 23.8003 5.51736 23.6229C4.95426 23.4149 4.4417 23.0853 4.0256 22.6544C3.59428 22.2336 3.26445 21.7265 3.0563 21.1639C2.8787 20.7076 2.66563 20.0179 2.60996 18.7556C2.54887 17.3867 2.53385 16.9759 2.53385 13.513C2.53385 10.05 2.54887 9.63434 2.60996 8.27058C2.66563 7.00306 2.8787 6.3186 3.0563 5.86229C3.26445 5.29941 3.59428 4.78738 4.03078 4.37153C4.45174 3.94058 4.95918 3.61102 5.52253 3.4033C5.97922 3.22585 6.66943 3.0129 7.93284 2.95708C9.30292 2.89624 9.71404 2.88103 13.1796 2.88103C16.6506 2.88103 17.0615 2.89624 18.4266 2.95708C19.6952 3.01295 20.3803 3.22579 20.8369 3.40325C21.4 3.61102 21.9127 3.94058 22.3287 4.37153C22.76 4.7924 23.0899 5.29941 23.298 5.86229C23.4756 6.3186 23.6887 7.00798 23.7445 8.27058C23.8054 9.63951 23.8207 10.05 23.8207 13.513C23.8207 16.9759 23.8055 17.3815 23.7446 18.7504Z" fill="black"/>
<path d="M13.1698 6.83569C9.48596 6.83569 6.49707 9.82187 6.49707 13.5029C6.49707 17.1838 9.48596 20.17 13.1698 20.17C16.8538 20.17 19.8426 17.1838 19.8426 13.5029C19.8426 9.82187 16.8538 6.83569 13.1698 6.83569ZM13.1698 17.8276C10.7799 17.8276 8.84131 15.891 8.84131 13.5029C8.84131 11.1147 10.7799 9.17807 13.1698 9.17807C15.5599 9.17807 17.4982 11.1147 17.4982 13.5029C17.4982 15.891 15.5598 17.8276 13.1698 17.8276ZM21.6644 6.57204C21.6644 7.43162 20.9668 8.12856 20.1064 8.12856C19.2461 8.12856 18.5486 7.43162 18.5486 6.57204C18.5486 5.71236 19.2461 5.01562 20.1064 5.01562C20.9668 5.01562 21.6644 5.71231 21.6644 6.57204Z" fill="black"/>
</svg>
