<svg width="18" height="21" viewBox="0 0 18 21" fill="none" xmlns="http://www.w3.org/2000/svg">
<path d="M9.27168 0.71875C3.78917 0.719583 0.875 4.23209 0.875 8.0621C0.875 9.83793 1.8675 12.0538 3.45667 12.7563C3.91001 12.9604 3.85001 12.7113 4.24001 11.2196C4.27084 11.0954 4.25501 10.9879 4.15501 10.8721C1.88333 8.2446 3.71167 2.84292 8.94752 2.84292C16.525 2.84292 15.1092 13.3279 10.2659 13.3279C9.01752 13.3279 8.08751 12.3479 8.38168 11.1354C8.73835 9.69127 9.43668 8.13876 9.43668 7.09793C9.43668 4.47459 5.52834 4.86376 5.52834 8.3396C5.52834 9.41377 5.90834 10.1388 5.90834 10.1388C5.90834 10.1388 4.65084 15.2188 4.41751 16.1679C4.02251 17.7746 4.47084 20.3755 4.51001 20.5996C4.53417 20.723 4.67251 20.7621 4.75001 20.6605C4.87417 20.498 6.39418 18.3296 6.82001 16.7621C6.97501 16.1913 7.61085 13.8746 7.61085 13.8746C8.03001 14.6313 9.23835 15.2646 10.5259 15.2646C14.3559 15.2646 17.1242 11.8979 17.1242 7.72043C17.1109 3.71542 13.6834 0.71875 9.27168 0.71875V0.71875Z" fill="black"/>
</svg>
