<svg width="23" height="26" viewBox="0 0 23 26" fill="none" xmlns="http://www.w3.org/2000/svg">
<path d="M11.3312 25.3409H11.3239C7.53985 25.3153 4.63084 24.0688 2.67627 21.6348C0.936333 19.4692 0.0393949 16.4559 0.00927734 12.6796V12.6613C0.0394444 8.88411 0.936333 5.87161 2.67627 3.70606C4.62989 1.27214 7.53985 0.0255389 11.323 0H11.3376C14.2384 0.0191542 16.6652 0.764731 18.5512 2.21396C20.3241 3.57648 21.5718 5.51847 22.2604 7.98703L20.1049 8.58754C18.9386 4.40694 15.9866 2.26964 11.3303 2.23589C8.25594 2.25776 5.93144 3.22329 4.41986 5.1051C3.00414 6.86733 2.27255 9.41256 2.24605 12.6696C2.27344 15.9275 3.00503 18.4727 4.41986 20.2341C5.93149 22.1158 8.25594 23.0812 11.3303 23.1032C14.1014 23.0831 15.9355 22.438 17.4608 20.9449C19.2016 19.2411 19.1697 17.1513 18.6125 15.8801C18.2846 15.1308 17.689 14.5066 16.8862 14.0339C16.6844 15.4594 16.2304 16.6165 15.529 17.4881C14.5937 18.6516 13.2675 19.2877 11.5887 19.378C10.3182 19.4464 9.09437 19.1463 8.14448 18.5321C7.02102 17.8056 6.36344 16.6941 6.2931 15.4019C6.22459 14.1453 6.72331 12.9899 7.69693 12.1484C8.62765 11.3445 9.93648 10.8727 11.4828 10.786C12.6226 10.7221 13.6885 10.7723 14.674 10.9365C14.5434 10.1526 14.2786 9.53115 13.884 9.08214C13.3414 8.4643 12.5021 8.14858 11.3905 8.14126H11.3595C10.4672 8.14126 9.25512 8.38581 8.48241 9.53387L6.62558 8.28637C7.65948 6.75048 9.33918 5.90542 11.3586 5.90542H11.4043C14.7809 5.9264 16.7913 7.98976 16.9913 11.5936C17.1063 11.642 17.2187 11.6921 17.3301 11.7442C18.9057 12.4843 20.0574 13.605 20.662 14.9848C21.5042 16.9085 21.5818 20.0434 19.0253 22.5438C17.0726 24.4547 14.7014 25.3171 11.3376 25.34H11.3303L11.3312 25.3409ZM12.3907 12.9962C12.135 12.9962 11.8755 13.0035 11.6106 13.019C9.66978 13.1286 8.46047 14.0165 8.52898 15.2814C8.60115 16.6065 10.0643 17.2224 11.47 17.1467C12.7642 17.0773 14.4485 16.5745 14.7307 13.2289C14.0164 13.0765 13.231 12.9962 12.3907 12.9962H12.3907Z" fill="black"/>
</svg>
